# xmcd
#
# Track frame offsets: 
#        150
#        9161
#        27829
#        36837
#        50164
#        62848
#        78143
#        89857
#        107567
#        118275
#        134232
#        149793
#        171021
#        189499
#
# Disc length: 2746 seconds
#
# Revision: 0
# Processed by: cddbd v1.5.2PL0 Copyright (c) Steve Scherf et al.
# Submitted via: ExactAudioCopy v1.0b3
#
DISCID=cd0ab80e
DTITLE=The Oak Ridge Boys - Christmas Times A-Coming
DYEAR=2012
DGENRE=Country
TTITLE0=Let It Snow! Let It Snow! Let It Snow!
TTITLE1=Peterbilt Sleigh
TTITLE2=Here Comes Santa Claus
TTITLE3=Christmas Time's A-Coming
TTITLE4=White Christmas
TTITLE5=All I Want for Christmas is You
TTITLE6=Santa Claus is Coming to Town
TTITLE7=Getting Ready for a Baby
TTITLE8=Joy to the World
TTITLE9=Mary, Did You Know
TTITLE10=Mary had a Little Lamb
TTITLE11=Glorious Impossible
TTITLE12=I'll be Home for Christmas
TTITLE13=The Christmas Song
EXTD=
EXTT0=
EXTT1=
EXTT2=
EXTT3=
EXTT4=
EXTT5=
EXTT6=
EXTT7=
EXTT8=
EXTT9=
EXTT10=
EXTT11=
EXTT12=
EXTT13=
PLAYORDER=
